<svg width="32" height="32" viewBox="0 0 32 32" fill="none" xmlns="http://www.w3.org/2000/svg">
<g id="envelope (1) 1" clip-path="url(#clip0_216_2381)">
<path id="Vector" d="M25.3333 1.33333H6.66667C4.89921 1.33545 3.20474 2.0385 1.95496 3.28829C0.705176 4.53807 0.00211714 6.23253 0 8L0 24C0.00211714 25.7675 0.705176 27.4619 1.95496 28.7117C3.20474 29.9615 4.89921 30.6645 6.66667 30.6667H25.3333C27.1008 30.6645 28.7953 29.9615 30.045 28.7117C31.2948 27.4619 31.9979 25.7675 32 24V8C31.9979 6.23253 31.2948 4.53807 30.045 3.28829C28.7953 2.0385 27.1008 1.33545 25.3333 1.33333ZM6.66667 3.99999H25.3333C26.1317 4.00157 26.9114 4.24201 27.5719 4.6904C28.2325 5.13879 28.7438 5.77459 29.04 6.516L18.8293 16.728C18.0779 17.4764 17.0606 17.8966 16 17.8966C14.9394 17.8966 13.9221 17.4764 13.1707 16.728L2.96 6.516C3.2562 5.77459 3.76748 5.13879 4.42806 4.6904C5.08864 4.24201 5.86829 4.00157 6.66667 3.99999ZM25.3333 28H6.66667C5.6058 28 4.58839 27.5786 3.83824 26.8284C3.08809 26.0783 2.66667 25.0609 2.66667 24V10L11.2853 18.6133C12.5368 19.8617 14.2323 20.5627 16 20.5627C17.7677 20.5627 19.4632 19.8617 20.7147 18.6133L29.3333 10V24C29.3333 25.0609 28.9119 26.0783 28.1618 26.8284C27.4116 27.5786 26.3942 28 25.3333 28Z" fill="#134339"/>
</g>
<defs>
<clipPath id="clip0_216_2381">
<rect width="32" height="32" fill="white"/>
</clipPath>
</defs>
</svg>
