<svg width="32" height="32" viewBox="0 0 32 32" fill="none" xmlns="http://www.w3.org/2000/svg">
<g id="marker (1) 1" clip-path="url(#clip0_216_2402)">
<g id="_01_align_center">
<path id="Vector" d="M15.9436 32.0107L15.0142 31.214C13.7329 30.1411 2.54492 20.4788 2.54492 13.4111C2.54492 6.0112 8.54373 0.0123901 15.9436 0.0123901C23.3435 0.0123901 29.3423 6.0112 29.3423 13.4111C29.3423 20.4789 18.1544 30.1412 16.8784 31.2193L15.9436 32.0107ZM15.9436 2.90958C10.1465 2.91614 5.44873 7.61395 5.44217 13.411C5.44217 17.8511 12.3254 24.9441 15.9436 28.1906C19.5619 24.9428 26.445 17.8458 26.445 13.411C26.4385 7.61395 21.7407 2.9162 15.9436 2.90958Z" fill="#134339"/>
<path id="Vector_2" d="M15.9439 18.7222C13.0107 18.7222 10.6328 16.3443 10.6328 13.4111C10.6328 10.4778 13.0107 8.09995 15.9439 8.09995C18.8772 8.09995 21.2551 10.4778 21.2551 13.4111C21.2551 16.3443 18.8772 18.7222 15.9439 18.7222ZM15.9439 10.7554C14.4773 10.7554 13.2884 11.9444 13.2884 13.411C13.2884 14.8776 14.4773 16.0666 15.9439 16.0666C17.4106 16.0666 18.5995 14.8776 18.5995 13.411C18.5995 11.9444 17.4106 10.7554 15.9439 10.7554Z" fill="#134339"/>
</g>
</g>
<defs>
<clipPath id="clip0_216_2402">
<rect width="32" height="32" fill="white"/>
</clipPath>
</defs>
</svg>
