<svg width="115" height="33" viewBox="0 0 115 33" fill="none" xmlns="http://www.w3.org/2000/svg">
<path id="Union" fill-rule="evenodd" clip-rule="evenodd" d="M9.08533 15.317C9.69962 14.6041 10.0106 13.4438 10.0106 11.8284V0.521057H12.6345V11.836C12.6345 14.1263 12.0733 15.8326 10.9509 16.9475C9.82854 18.0623 8.26629 18.6235 6.3021 18.6235C4.33791 18.6235 2.79082 18.0623 1.67601 16.9475C0.561198 15.8326 0 14.1263 0 11.836V0.521057H2.63156V11.8284C2.63156 13.4362 2.93491 14.6041 3.5492 15.317C4.16348 16.0298 5.07353 16.3863 6.30968 16.3863C7.54583 16.3863 8.47105 16.0298 9.08533 15.317ZM50.7277 8.09722C50.6442 8.04414 50.485 7.9683 50.2347 7.87729V7.86971C49.9845 7.78629 49.6508 7.74079 49.2109 7.74079C48.5511 7.74079 48.0051 7.85454 47.5652 8.08964C47.133 8.32473 46.7841 8.63567 46.5263 9.02244C46.2684 9.40921 46.0788 9.8339 45.9727 10.2889C45.8665 10.744 45.8134 11.199 45.8134 11.6616V18.3656H43.1894V5.51116H45.8134V7.24026C45.9727 6.98241 46.1471 6.73973 46.3518 6.5198C46.7083 6.1482 47.1406 5.85243 47.6562 5.6325C48.1719 5.41257 48.7711 5.3064 49.446 5.3064C49.9617 5.3064 50.3788 5.34432 50.6973 5.42774C51.0083 5.51116 51.2054 5.57183 51.2813 5.62492L50.7277 8.09722ZM58.2432 1.27184H55.6268V3.75173C55.6268 4.16883 55.6117 4.50252 55.5889 4.7452C55.5662 4.98788 55.5055 5.16231 55.4145 5.26848C55.3235 5.38223 55.1794 5.45049 54.9822 5.47324C54.785 5.50357 54.512 5.51874 54.1632 5.51874H52.5402V7.69528H55.6268V15.1956C55.6268 15.9161 55.733 16.4924 55.9378 16.9399C56.1501 17.3873 56.4307 17.7286 56.7796 17.9637C57.1284 18.2064 57.5152 18.3656 57.9399 18.4566C58.3646 18.5476 58.7893 18.5855 59.2139 18.5855C59.5628 18.5855 59.8661 18.5628 60.1316 18.5173C60.397 18.4642 60.6018 18.4111 60.7459 18.358V16.2118C60.6321 16.2573 60.4653 16.3028 60.2529 16.3408C60.033 16.3787 59.8055 16.4014 59.5628 16.4014C59.0016 16.4014 58.6376 16.2194 58.4783 15.8478C58.3191 15.4762 58.2432 14.9681 58.2432 14.3235V7.69528H62.1792V5.51874H58.2432V1.27184ZM71.3707 5.32158C72.3869 5.32158 73.259 5.51118 73.9795 5.90553V5.91312C74.6999 6.29989 75.2535 6.86109 75.6327 7.58154C76.0195 8.302 76.2091 9.16655 76.2091 10.1676V18.3884H73.5851V10.8956C73.5851 10.2662 73.4941 9.71257 73.2969 9.2348C73.0997 8.74944 72.7812 8.37784 72.3414 8.10482C71.8939 7.83181 71.3024 7.6953 70.5592 7.6953C69.907 7.6953 69.3155 7.85456 68.7846 8.18066C68.2537 8.49918 67.8366 8.93903 67.5257 9.49265C67.2148 10.0463 67.0631 10.6681 67.0631 11.3734V18.3808H64.4391V5.52635H67.0631V7.44503C67.5029 6.88384 68.0262 6.41364 68.6557 6.04962C69.4823 5.56426 70.3544 5.32158 71.3707 5.32158ZM100.72 5.31399C100.045 5.31399 99.4458 5.42016 98.9301 5.64009C98.4144 5.86002 97.9821 6.15578 97.6257 6.52739C97.4209 6.74731 97.2465 6.98999 97.0872 7.24784V5.51875H94.4632V18.3732H97.0872V11.6692C97.0872 11.2066 97.1403 10.7515 97.2465 10.2965C97.3526 9.84149 97.5422 9.41679 97.8001 9.03002C98.0579 8.64325 98.4068 8.33232 98.8391 8.09722C99.2713 7.86213 99.8249 7.74837 100.485 7.74837C100.925 7.74837 101.258 7.79387 101.509 7.87729C101.759 7.9683 101.918 8.04414 102.001 8.09722L102.555 5.62492C102.487 5.57183 102.29 5.51116 101.971 5.42774C101.653 5.34432 101.236 5.3064 100.72 5.3064V5.31399ZM113.43 12.018C113.915 12.3062 114.295 12.6702 114.583 13.1101L114.568 13.0873C114.856 13.5348 115 14.0581 115 14.7254C115 15.3928 114.841 15.9692 114.537 16.4545C114.234 16.9399 113.817 17.3418 113.286 17.6603C112.755 17.9788 112.156 18.2139 111.481 18.3732C110.806 18.5325 110.131 18.6083 109.358 18.6083C108.584 18.6083 107.864 18.5249 107.189 18.358C106.514 18.1912 105.915 17.9409 105.407 17.6148C104.891 17.2887 104.496 16.8868 104.208 16.4014C103.92 15.9161 103.776 15.3549 103.776 14.7178V14.3917H106.392V14.6344C106.392 15.2184 106.665 15.6658 107.211 15.9692C107.757 16.2725 108.501 16.4242 109.434 16.4242C109.987 16.4242 110.488 16.3711 110.943 16.2573C111.405 16.1436 111.762 15.9692 112.035 15.7341C112.3 15.499 112.437 15.2032 112.437 14.8392C112.437 14.2476 112.148 13.8305 111.572 13.5803C110.996 13.33 110.124 13.1101 108.956 12.9129C108.319 12.8067 107.704 12.6626 107.113 12.4806C106.514 12.3062 105.983 12.0711 105.513 11.7753C105.035 11.4796 104.663 11.1156 104.383 10.6757C104.102 10.2358 103.966 9.70498 103.966 9.08311C103.966 8.27165 104.208 7.58153 104.694 7.02033C105.179 6.45913 105.831 6.02686 106.658 5.73868C107.477 5.45049 108.417 5.3064 109.38 5.3064C110.344 5.3064 111.231 5.45808 112.05 5.76901C112.869 6.07994 113.529 6.52739 114.029 7.11133C114.53 7.69528 114.78 8.40816 114.78 9.25754V9.47746H112.179V9.31062C112.179 8.88593 112.05 8.54466 111.784 8.27923C111.511 8.0138 111.17 7.81662 110.745 7.68012C110.321 7.55119 109.873 7.48294 109.396 7.48294C108.963 7.48294 108.523 7.53602 108.084 7.62703C107.644 7.71803 107.28 7.87729 106.992 8.09722C106.696 8.31715 106.552 8.61292 106.552 8.99969C106.552 9.38646 106.696 9.69739 106.976 9.92491C107.257 10.1524 107.659 10.342 108.175 10.4937C108.69 10.6454 109.289 10.7819 109.98 10.9032C110.601 11.017 111.216 11.1611 111.815 11.3355C112.414 11.5099 112.952 11.7374 113.43 12.018ZM24.7306 1.2946C23.7978 0.778905 22.6451 0.521057 21.2724 0.521057H15.9031V18.3732H18.5271V13.33H18.5195V8.70392H18.5271V2.69759H20.969C21.8488 2.69759 22.5768 2.8341 23.1608 3.1147C23.7371 3.3953 24.177 3.80482 24.4652 4.34327C24.7533 4.88171 24.8974 5.5415 24.8974 6.31504C24.8974 7.08858 24.7458 7.76354 24.45 8.3399C24.1542 8.90868 23.7068 9.35613 23.1228 9.66706C22.5389 9.97799 21.8184 10.1297 20.9615 10.1297H20.059V12.3062H21.2648C22.6147 12.3062 23.7523 12.0332 24.6927 11.4796C25.6255 10.9335 26.3383 10.2055 26.8161 9.29546C27.2939 8.38541 27.5366 7.39193 27.5366 6.30746C27.5366 5.22298 27.3015 4.25226 26.8313 3.37255C26.3611 2.50042 25.6558 1.80271 24.723 1.28702L24.7306 1.2946ZM88.0398 15.7492C88.328 15.5369 88.5555 15.3169 88.7072 15.0667L88.6996 15.0591C88.8512 14.8088 88.9423 14.5661 88.965 14.3235H91.5814C91.5359 14.8467 91.3615 15.37 91.0657 15.8781C90.7775 16.3938 90.3604 16.8564 89.822 17.2735C89.2835 17.6907 88.6313 18.0168 87.8578 18.267C87.0918 18.5173 86.2045 18.6386 85.2035 18.6386C83.8687 18.6386 82.6932 18.3504 81.6846 17.7892C80.676 17.228 79.8948 16.4393 79.3261 15.4383C78.8938 14.6723 78.6284 13.8154 78.5298 12.875H81.1082C81.1841 13.4134 81.3206 13.9064 81.5405 14.3386C81.8818 15.0136 82.3671 15.5293 83.0042 15.8933C83.6412 16.2573 84.4072 16.4393 85.2945 16.4393C85.9163 16.4393 86.4548 16.3787 86.9098 16.2497C87.3724 16.1284 87.744 15.9616 88.0398 15.7492ZM88.6995 6.16337C87.7212 5.60218 86.5609 5.31399 85.2186 5.31399C83.8763 5.31399 82.7387 5.59459 81.7225 6.15579C80.7063 6.71699 79.91 7.49811 79.3412 8.49917C78.9468 9.18929 78.6966 9.97042 78.5752 10.8198H81.1385C81.2295 10.3572 81.3661 9.9325 81.5632 9.56089C81.9121 8.90111 82.405 8.393 83.0421 8.03656C83.6715 7.68012 84.4147 7.49811 85.2489 7.49811C86.0831 7.49811 86.7884 7.66496 87.3496 7.99864C87.9108 8.33232 88.3355 8.77977 88.6161 9.3258C88.8512 9.78841 88.9801 10.2889 89.0256 10.8198H82.3292V12.8674H91.733C91.7482 12.7916 91.7634 12.6551 91.771 12.4579L91.7742 12.3702C91.7806 12.2027 91.7861 12.0566 91.7861 11.927C91.7861 10.6378 91.5207 9.49264 90.9898 8.49917C90.459 7.5057 89.7006 6.73215 88.7223 6.16337H88.6995ZM40.4821 16.6745C40.5048 16.9551 40.5503 17.1977 40.611 17.4177L40.6262 17.448C40.6944 17.6983 40.7854 17.903 40.884 18.0623C40.9826 18.2291 41.0736 18.3429 41.1343 18.4036H38.5179C38.4648 18.3505 38.3965 18.2519 38.3055 18.0926C38.2145 17.9334 38.1311 17.7514 38.0553 17.539C37.9946 17.3646 37.9491 17.1522 37.9112 16.9247C37.714 17.1522 37.4941 17.3646 37.2286 17.5542C36.7357 17.903 36.1517 18.1685 35.4692 18.3656C34.7943 18.5552 34.0359 18.6538 33.2017 18.6538C32.2309 18.6538 31.3816 18.4946 30.6535 18.1912C29.9255 17.8879 29.3567 17.4404 28.9548 16.8716C28.5528 16.3029 28.3481 15.6051 28.3481 14.8013C28.3481 13.9367 28.5756 13.2239 29.0306 12.6627C29.4856 12.1015 30.1151 11.6616 30.919 11.3507C31.7228 11.0397 32.6329 10.835 33.6567 10.7364C34.7791 10.6226 35.6512 10.5089 36.2882 10.4027V12.3821C35.6285 12.4882 34.9535 12.5792 34.2558 12.6551C33.1637 12.7537 32.3447 12.9357 31.7987 13.2163C31.2526 13.4969 30.9796 13.9822 30.9796 14.6041C30.9796 15.226 31.2071 15.6886 31.6622 15.9995C32.1172 16.3029 32.8149 16.4621 33.7477 16.4621C34.4909 16.4621 35.181 16.3408 35.7953 16.1057C36.4172 15.863 36.9101 15.499 37.2817 15.0136C37.6533 14.5283 37.8353 13.914 37.8353 13.1708V12.5413L37.8202 9.63674V9.5609V9.55332V9.53057C37.8202 8.87836 37.5396 8.38542 36.986 8.04415C36.4248 7.70288 35.6285 7.53604 34.5971 7.53604C33.505 7.53604 32.6632 7.73322 32.0717 8.1124C31.4802 8.49159 31.1844 9.09829 31.1844 9.9325H28.6059C28.6059 8.9542 28.8638 8.1124 29.3719 7.42987C29.88 6.73975 30.5929 6.21647 31.4953 5.86003C32.3978 5.50359 33.4368 5.32158 34.6047 5.32158C35.674 5.32158 36.6599 5.48843 37.5396 5.81453C38.4269 6.14063 39.1322 6.62599 39.6554 7.27061C40.1863 7.91523 40.4441 8.71152 40.4441 9.67466V15.8099C40.4441 16.1057 40.4593 16.3939 40.4821 16.6745ZM17.0027 31.5917L15.2812 26.2451H14.2726L16.3657 32.35H17.6473L19.6874 26.2451H18.6787L17.0027 31.5917ZM23.9192 27.0414C23.4869 27.0414 23.1001 27.1324 22.774 27.3144L22.7816 27.322C22.4479 27.5116 22.1901 27.7695 22.0081 28.1032C21.8943 28.3155 21.8185 28.5582 21.773 28.8236H25.8606C25.8379 28.5278 25.7772 28.2624 25.6559 28.0121C25.5042 27.7164 25.2843 27.4813 24.9961 27.3069C24.7079 27.1324 24.3515 27.0414 23.9192 27.0414ZM23.9192 26.1617C24.5335 26.1617 25.0643 26.2982 25.5194 26.5637L25.5042 26.5712C25.9592 26.8367 26.3081 27.2083 26.5507 27.6709C26.801 28.1335 26.9223 28.6644 26.9223 29.2559V29.4986C26.9223 29.6047 26.9072 29.7033 26.9072 29.7033H21.7654C21.8033 30.0067 21.8792 30.2797 22.0081 30.5224C22.1825 30.8636 22.4403 31.1291 22.7665 31.3111C23.0926 31.4931 23.4793 31.5841 23.9343 31.5841C24.2604 31.5841 24.541 31.5538 24.7761 31.4855C25.0188 31.4248 25.216 31.3338 25.3677 31.2201C25.5269 31.1063 25.6407 30.985 25.7241 30.8485C25.8075 30.712 25.853 30.583 25.8682 30.4465H26.8465C26.8313 30.6892 26.7555 30.9319 26.619 31.1746C26.4825 31.4173 26.2929 31.6372 26.0502 31.8344C25.8075 32.0315 25.5042 32.1832 25.1477 32.3046C24.7913 32.4183 24.3818 32.479 23.9192 32.479C23.3049 32.479 22.7665 32.3425 22.2963 32.077C21.8336 31.8116 21.462 31.44 21.1966 30.9622C20.9312 30.4845 20.7947 29.946 20.7947 29.3241C20.7947 28.7023 20.9312 28.1487 21.1966 27.6785C21.462 27.2007 21.8336 26.8291 22.3038 26.5637C22.774 26.2982 23.3049 26.1617 23.9192 26.1617ZM33.141 26.4271C32.7921 26.2451 32.375 26.1541 31.9048 26.1541C31.4346 26.1541 31.0175 26.2679 30.6232 26.503C30.3274 26.6774 30.0923 26.9125 29.8876 27.1779V26.2527H28.9093V32.35H29.8876V28.9525C29.8876 28.6037 29.971 28.2852 30.1378 28.0046C30.3047 27.724 30.5246 27.4964 30.8052 27.3296C31.0858 27.1628 31.3816 27.0793 31.7077 27.0793C32.0793 27.0793 32.3826 27.1476 32.6101 27.2765C32.8376 27.4054 33.0045 27.595 33.1182 27.8301C33.2244 28.0652 33.2775 28.3458 33.2775 28.6643V32.35H34.2558V28.4065C34.2558 27.9363 34.1572 27.5344 33.9676 27.1931C33.7704 26.8594 33.4974 26.6016 33.1486 26.4196L33.141 26.4271ZM37.1604 24.2279H38.1463V24.2355V26.2603H40.0574V27.1249H38.1463V30.5527C38.1463 30.8788 38.1842 31.1367 38.2601 31.3187C38.3359 31.5007 38.5179 31.5917 38.7909 31.5917C38.9047 31.5917 39.0108 31.5841 39.1094 31.5614C39.193 31.5435 39.253 31.5256 39.3007 31.5114L39.3369 31.5007V32.3501C39.2687 32.3728 39.1777 32.3956 39.0639 32.4183C38.9426 32.4335 38.8137 32.4487 38.6696 32.4487C38.48 32.4487 38.298 32.4259 38.116 32.388C37.9339 32.3425 37.7747 32.2666 37.6306 32.1605C37.4865 32.0543 37.3727 31.9026 37.2893 31.6979C37.2059 31.4931 37.1604 31.2353 37.1604 30.9167V27.1173H35.674V26.2527H36.6295C36.7585 26.2527 36.8571 26.2451 36.9329 26.2376C37.0087 26.23 37.0618 26.1996 37.0922 26.1617C37.1225 26.1238 37.1452 26.0556 37.1528 25.9721C37.1604 25.8887 37.1604 25.7674 37.1604 25.6157V24.2279ZM45.9878 29.4834C45.9878 29.8019 45.912 30.1204 45.7603 30.4389C45.6086 30.7575 45.4039 31.0229 45.1384 31.2352C44.873 31.4476 44.5697 31.5538 44.2132 31.5538C43.8416 31.5538 43.5459 31.4703 43.3259 31.3111C43.1136 31.1518 42.9619 30.9319 42.8785 30.674C42.7951 30.4086 42.7496 30.1204 42.7496 29.8095V26.2451H41.7713V30.0446C41.7713 30.3024 41.8092 30.5754 41.8774 30.856C41.9457 31.1366 42.067 31.4021 42.2415 31.6372C42.4159 31.8799 42.6434 32.077 42.9316 32.2287C43.2198 32.3804 43.5838 32.4562 44.0236 32.4562C44.4104 32.4562 44.7593 32.3804 45.0702 32.2211C45.3811 32.0619 45.6466 31.8571 45.8665 31.5917C45.8946 31.5589 45.9169 31.5232 45.9388 31.4882L45.9388 31.4882L45.9388 31.4881C45.9524 31.4665 45.9658 31.4451 45.9802 31.4248V32.35H46.9585V26.2451H45.9802V29.4834H45.9878ZM50.9401 26.3134C51.1903 26.2072 51.4785 26.1541 51.8046 26.1541L51.797 26.1693C52.0397 26.1693 52.2445 26.192 52.3961 26.23C52.5478 26.2679 52.6464 26.2982 52.6843 26.321L52.4341 27.2765C52.4018 27.2507 52.3366 27.2249 52.2478 27.1898L52.2478 27.1898L52.199 27.1703C52.0852 27.1324 51.9184 27.1097 51.706 27.1097C51.3875 27.1097 51.1221 27.1703 50.9173 27.2841C50.7125 27.3979 50.5457 27.5495 50.4244 27.7391C50.303 27.9287 50.2196 28.1335 50.1665 28.3534C50.1134 28.5733 50.0907 28.7933 50.0907 29.0132V32.35H49.1124V26.2451H50.0907V27.049C50.1589 26.9428 50.2348 26.8367 50.3258 26.7381C50.4926 26.5636 50.6974 26.4196 50.9401 26.3134ZM55.8392 27.3144C56.1653 27.1324 56.552 27.0414 56.9843 27.0414C57.4166 27.0414 57.773 27.1324 58.0612 27.3069C58.3494 27.4813 58.5693 27.7164 58.721 28.0121C58.8423 28.2624 58.903 28.5278 58.9257 28.8236H54.8381C54.8836 28.5582 54.9594 28.3155 55.0732 28.1032C55.2552 27.7695 55.5131 27.5116 55.8392 27.322V27.3144ZM58.5769 26.5637C58.1219 26.2982 57.591 26.1617 56.9767 26.1617C56.3624 26.1617 55.8316 26.2982 55.3614 26.5637C54.8912 26.8291 54.5196 27.2007 54.2542 27.6785C53.9887 28.1487 53.8522 28.7023 53.8522 29.3241C53.8522 29.946 53.9887 30.4845 54.2542 30.9622C54.5196 31.44 54.8836 31.8116 55.3538 32.077C55.824 32.3425 56.3624 32.479 56.9767 32.479C57.4393 32.479 57.8489 32.4183 58.2053 32.3046C58.5617 32.1832 58.8651 32.0315 59.1078 31.8344C59.3504 31.6372 59.54 31.4173 59.6765 31.1746C59.813 30.9319 59.8889 30.6892 59.904 30.4465H58.9257C58.9106 30.583 58.8651 30.712 58.7817 30.8485C58.6982 30.985 58.5845 31.1063 58.4252 31.2201C58.2735 31.3338 58.0764 31.4248 57.8337 31.4855C57.5986 31.5538 57.318 31.5841 56.9919 31.5841C56.5369 31.5841 56.1501 31.4931 55.824 31.3111C55.4979 31.1291 55.24 30.8636 55.0656 30.5224C54.9367 30.2797 54.8609 30.0067 54.8229 29.7033H59.9723C59.9723 29.7033 59.9875 29.6047 59.9875 29.4986V29.2559C59.9875 28.6644 59.8661 28.1335 59.6159 27.6709C59.3732 27.2083 59.0243 26.8367 58.5693 26.5712L58.5769 26.5637ZM68.7695 29.089C69.0577 29.18 69.3003 29.2862 69.5203 29.4227L69.5279 29.4151C69.7402 29.5516 69.9146 29.7185 70.036 29.9233C70.1649 30.128 70.2256 30.3783 70.2256 30.674C70.2256 30.9698 70.1573 31.2352 70.0208 31.4552C69.8843 31.6751 69.7023 31.8571 69.4596 32.0088C69.2169 32.1529 68.9439 32.2666 68.633 32.3425C68.3145 32.4183 67.9959 32.4562 67.6319 32.4562C67.2679 32.4562 66.9266 32.4183 66.6157 32.3425C66.2972 32.2666 66.0317 32.1529 65.7967 32.0012C65.5691 31.8495 65.3871 31.6599 65.2582 31.44C65.1293 31.2125 65.0686 30.9622 65.0686 30.674V30.4996H66.0469V30.6285C66.0469 30.9395 66.191 31.1822 66.4792 31.3414C66.7674 31.5007 67.1541 31.5841 67.6547 31.5841C67.958 31.5841 68.231 31.5538 68.4737 31.4931C68.7088 31.4324 68.906 31.3414 69.0425 31.2125C69.1866 31.0836 69.2548 30.9243 69.2548 30.7347C69.2548 30.4162 69.1032 30.1887 68.8074 30.0522C68.5116 29.9157 68.0718 29.7943 67.4802 29.6957C67.1693 29.6427 66.8735 29.5668 66.5929 29.4834C66.3123 29.4 66.0621 29.2862 65.8497 29.1497C65.6374 29.0132 65.463 28.8388 65.3416 28.634C65.2127 28.4293 65.152 28.1866 65.152 27.8984C65.152 27.5268 65.2658 27.2083 65.4857 26.9504C65.7056 26.6926 66.009 26.4954 66.3806 26.3589C66.7522 26.2224 67.1921 26.1541 67.6319 26.1541C68.0718 26.1541 68.4889 26.2224 68.8605 26.3665C69.2321 26.5106 69.5354 26.7153 69.7629 26.9883C69.9905 27.2538 70.1042 27.5875 70.1042 27.9818V28.0956H69.1259V28.0121C69.1259 27.7922 69.0577 27.6102 68.9136 27.4661C68.7695 27.3296 68.5875 27.2159 68.36 27.1476C68.14 27.0793 67.8973 27.0414 67.6395 27.0414C67.3968 27.0414 67.1617 27.0642 66.9266 27.1173C66.6991 27.1703 66.5019 27.2538 66.3503 27.3751C66.1986 27.4889 66.1227 27.6481 66.1227 27.8605C66.1227 28.0728 66.191 28.2397 66.3351 28.361C66.4792 28.4823 66.6764 28.5885 66.9418 28.6643C67.1996 28.7402 67.5106 28.8084 67.867 28.8767C68.1855 28.9298 68.4889 29.0056 68.7695 29.089ZM73.9416 24.2279H72.9557V25.6157V25.6162C72.9557 25.7676 72.9557 25.8888 72.9481 25.9721C72.9405 26.0556 72.9178 26.1238 72.8874 26.1617C72.8571 26.1996 72.804 26.23 72.7282 26.2376C72.6523 26.2451 72.5537 26.2527 72.4248 26.2527H71.4693V27.1173H72.9557V30.9167C72.9557 31.2353 73.0012 31.4931 73.0846 31.6979C73.168 31.9026 73.2818 32.0543 73.4259 32.1605C73.57 32.2666 73.7292 32.3425 73.9112 32.388C74.0932 32.4259 74.2752 32.4487 74.4648 32.4487C74.6089 32.4487 74.7379 32.4335 74.8592 32.4183C74.9729 32.3956 75.0639 32.3728 75.1322 32.3501V31.5007C75.1189 31.5045 75.1047 31.5087 75.0893 31.5134L75.0893 31.5134C75.0431 31.5272 74.9862 31.5443 74.9123 31.5614C74.8137 31.5841 74.7075 31.5917 74.5938 31.5917C74.3207 31.5917 74.1387 31.5007 74.0629 31.3187C73.9871 31.1367 73.9416 30.8788 73.9416 30.5527V27.1249H75.8527V26.2603H73.9416V24.2355V24.2279ZM81.5557 30.4389C81.7074 30.1204 81.7832 29.8019 81.7832 29.4834V26.2451H82.7615V32.35H81.7832V31.4248C81.7604 31.4514 81.7415 31.4798 81.7225 31.5082C81.7036 31.5367 81.6846 31.5651 81.6618 31.5917C81.4419 31.8571 81.1765 32.0619 80.8655 32.2211C80.5546 32.3804 80.2058 32.4562 79.819 32.4562C79.3791 32.4562 79.0151 32.3804 78.7269 32.2287C78.4388 32.077 78.2112 31.8723 78.0368 31.6372C77.8624 31.4021 77.741 31.1366 77.6728 30.856C77.6045 30.5754 77.5666 30.3024 77.5666 30.0446V26.2451H78.5449V29.8095C78.5449 30.1204 78.5904 30.4086 78.6738 30.674C78.7573 30.9319 78.9089 31.1518 79.1213 31.3111C79.3412 31.4703 79.637 31.5538 80.0086 31.5538C80.3574 31.5538 80.6684 31.4476 80.9338 31.2352C81.1992 31.0229 81.404 30.7575 81.5557 30.4389ZM89.1773 30.6286C89.0105 30.9092 88.783 31.1291 88.5024 31.2959C88.2218 31.4628 87.9109 31.5462 87.5696 31.5462C87.0311 31.5462 86.5837 31.3642 86.2197 30.9926C85.8632 30.621 85.6812 30.0598 85.6812 29.3014C85.6812 28.543 85.8557 27.9743 86.2121 27.6102C86.5685 27.2462 87.016 27.0642 87.562 27.0642C87.8881 27.0642 88.1914 27.1476 88.472 27.2993C88.7526 27.4586 88.9877 27.6709 89.1622 27.9363C89.3366 28.2018 89.42 28.5051 89.42 28.8388V29.7033C89.42 30.0522 89.3366 30.3631 89.1697 30.6361L89.1773 30.6286ZM89.42 27.0263C89.2228 26.8215 89.0029 26.6395 88.7451 26.503C88.3355 26.2755 87.8957 26.1693 87.4179 26.1693C86.9401 26.1693 86.4699 26.2907 86.0528 26.5333C85.6357 26.776 85.302 27.1325 85.0442 27.6026C84.7939 28.0728 84.665 28.634 84.665 29.309C84.665 29.9839 84.7863 30.5679 85.0366 31.0381C85.2869 31.5083 85.6206 31.8723 86.0377 32.115C86.4548 32.3577 86.9174 32.479 87.4179 32.479C87.9184 32.479 88.3735 32.3577 88.783 32.115C89.0257 31.9709 89.238 31.7965 89.42 31.5917V32.3652H90.4059V23.3861H89.42V27.0263ZM92.6659 23.8639C92.8024 23.7653 92.9541 23.7122 93.1361 23.7122C93.3105 23.7122 93.4698 23.7653 93.5987 23.8639C93.7276 23.9624 93.7959 24.0989 93.7959 24.2734C93.7959 24.4478 93.7276 24.5919 93.5987 24.6905C93.4698 24.7891 93.3181 24.8422 93.1361 24.8422C92.9541 24.8422 92.7948 24.7891 92.6659 24.6905C92.537 24.5919 92.4687 24.4478 92.4687 24.2734C92.4687 24.0989 92.537 23.9624 92.6659 23.8639ZM93.6139 26.2451H92.6507V32.3425H93.6139V26.2451ZM99.8932 31.2732C100.219 31.0912 100.47 30.8257 100.652 30.4845C100.834 30.1432 100.925 29.7412 100.925 29.2862C100.925 28.8312 100.834 28.4368 100.652 28.1032C100.47 27.7695 100.212 27.5116 99.8932 27.3296C99.5746 27.1476 99.1955 27.0566 98.7784 27.0566C98.3612 27.0566 97.9896 27.1476 97.6635 27.3296C97.3374 27.5116 97.0872 27.7695 96.9052 28.1032C96.7232 28.4368 96.6321 28.8312 96.6321 29.2862C96.6321 29.7412 96.7232 30.1432 96.9052 30.4845C97.0872 30.8181 97.3374 31.0836 97.6635 31.2732C97.9896 31.4628 98.3537 31.5538 98.7784 31.5538C99.203 31.5538 99.5746 31.4628 99.8932 31.2732ZM98.7784 26.1617C99.3926 26.1617 99.9311 26.2982 100.401 26.5637C100.871 26.8291 101.235 27.2007 101.501 27.6709C101.766 28.1411 101.903 28.6795 101.903 29.2938C101.903 29.9081 101.766 30.4465 101.501 30.9243C101.235 31.4021 100.871 31.7737 100.401 32.0467C99.9311 32.3197 99.3926 32.4562 98.7784 32.4562C98.1641 32.4562 97.6256 32.3197 97.1554 32.0467C96.6928 31.7737 96.3212 31.4021 96.0558 30.9243C95.7828 30.4465 95.6538 29.9081 95.6538 29.2938C95.6538 28.6795 95.7904 28.1411 96.0558 27.6709C96.3212 27.2007 96.6852 26.8291 97.1554 26.5637C97.6256 26.2982 98.1641 26.1617 98.7784 26.1617Z" fill="#F0ECEA"/>
</svg>
