<svg width="230" height="64" viewBox="0 0 230 64" fill="none" xmlns="http://www.w3.org/2000/svg">
<path id="Union" fill-rule="evenodd" clip-rule="evenodd" d="M49.4608 1.54709C47.5952 0.515696 45.2897 0 42.5444 0H31.8059V35.7043H37.0538V25.6179H37.0386V16.3658H37.0538V4.35308H41.9377C43.6972 4.35308 45.1532 4.62609 46.3211 5.18729C47.4739 5.74849 48.3536 6.56754 48.9299 7.64443C49.5063 8.72132 49.7945 10.0409 49.7945 11.588C49.7945 13.1351 49.4911 14.485 48.8996 15.6377C48.3081 16.7753 47.4132 17.6702 46.2453 18.292C45.0774 18.9139 43.6365 19.2172 41.9226 19.2172H40.1176V23.5703H42.5293C45.2291 23.5703 47.5042 23.0243 49.385 21.9171C51.2506 20.825 52.6763 19.3689 53.6319 17.5488C54.5874 15.7287 55.0728 13.7418 55.0728 11.5728C55.0728 9.40386 54.6026 7.46242 53.6622 5.70299C52.7218 3.95872 51.3112 2.56331 49.4456 1.53192L49.4608 1.54709ZM18.1706 29.592C19.3992 28.1662 20.0211 25.8456 20.0211 22.6149V0.000162809H25.269V22.6301C25.269 27.2107 24.1466 30.6234 21.9018 32.853C19.6571 35.0826 16.5326 36.205 12.6042 36.205C8.6758 36.205 5.58163 35.0826 3.35201 32.853C1.12239 30.6234 0 27.2107 0 22.6301V0.000162809H5.26312V22.6149C5.26312 25.8304 5.86982 28.1662 7.09838 29.592C8.32695 31.0177 10.147 31.7306 12.6193 31.7306C15.0916 31.7306 16.9421 31.0177 18.1706 29.592ZM101.455 15.1526C101.288 15.0464 100.97 14.8947 100.469 14.7127V14.6976C99.9689 14.5307 99.3015 14.4397 98.4218 14.4397C97.1022 14.4397 96.0101 14.6672 95.1304 15.1374C94.2659 15.6076 93.5682 16.2295 93.0525 17.003C92.5368 17.7766 92.1576 18.6259 91.9453 19.536C91.7329 20.446 91.6267 21.3561 91.6267 22.2813V35.6894H86.3788V9.98046H91.6267V13.4387C91.9453 12.923 92.2941 12.4376 92.7036 11.9977C93.4165 11.2545 94.2811 10.663 95.3124 10.2231C96.3438 9.78328 97.5421 9.57094 98.892 9.57094C99.9233 9.57094 100.758 9.64677 101.395 9.81362C102.016 9.98046 102.411 10.1018 102.562 10.208L101.455 15.1526ZM116.486 1.50159H111.253V6.46137C111.253 7.29558 111.223 7.96295 111.178 8.44831C111.132 8.93367 111.011 9.28253 110.829 9.49487C110.647 9.72239 110.359 9.85889 109.964 9.9044C109.57 9.96507 109.024 9.9954 108.326 9.9954H105.08V14.3485H111.253V29.3492C111.253 30.7901 111.466 31.9428 111.875 32.8377C112.3 33.7326 112.861 34.4151 113.559 34.8853C114.257 35.3707 115.03 35.6892 115.88 35.8712C116.729 36.0532 117.578 36.129 118.428 36.129C119.125 36.129 119.732 36.0835 120.263 35.9925C120.794 35.8864 121.203 35.7802 121.492 35.674V31.3816C121.264 31.4726 120.93 31.5636 120.506 31.6395C120.066 31.7153 119.611 31.7608 119.125 31.7608C118.003 31.7608 117.275 31.3968 116.956 30.6536C116.638 29.9104 116.486 28.8941 116.486 27.6049V14.3485H124.358V9.9954H116.486V1.50159ZM142.741 9.60121C144.774 9.60121 146.518 9.9804 147.959 10.7691V10.7843C149.4 11.5578 150.507 12.6802 151.265 14.1211C152.039 15.562 152.418 17.2911 152.418 19.2933V35.7348H147.17V20.7493C147.17 19.4904 146.988 18.3832 146.594 17.4276C146.2 16.4569 145.562 15.7137 144.683 15.1677C143.788 14.6217 142.605 14.3486 141.118 14.3486C139.814 14.3486 138.631 14.6672 137.569 15.3194C136.508 15.9564 135.673 16.8361 135.051 17.9433C134.43 19.0506 134.126 20.2943 134.126 21.7049V35.7197H128.878V10.0107H134.126V13.8481C135.006 12.7257 136.052 11.7853 137.311 11.0573C138.965 10.0866 140.709 9.60121 142.741 9.60121ZM201.439 9.5861C200.089 9.5861 198.891 9.79845 197.86 10.2383C196.828 10.6782 195.964 11.2697 195.251 12.0129C194.841 12.4528 194.492 12.9381 194.174 13.4538V9.99563H188.926V35.7046H194.174V22.2965C194.174 21.3713 194.28 20.4612 194.492 19.5512C194.705 18.6411 195.084 17.7917 195.6 17.0182C196.115 16.2446 196.813 15.6228 197.678 15.1526C198.542 14.6824 199.649 14.4549 200.969 14.4549C201.849 14.4549 202.516 14.5459 203.017 14.7127C203.517 14.8947 203.836 15.0464 204.002 15.1526L205.11 10.208C204.973 10.1018 204.579 9.98046 203.942 9.81362C203.305 9.64677 202.471 9.57094 201.439 9.57094V9.5861ZM226.86 22.9942C227.831 23.5706 228.589 24.2986 229.166 25.1783L229.135 25.1328C229.712 26.0277 230 27.0743 230 28.409C230 29.7437 229.681 30.8965 229.075 31.8672C228.468 32.8379 227.634 33.6418 226.572 34.2788C225.51 34.9159 224.312 35.3861 222.962 35.7046C221.612 36.0231 220.262 36.1748 218.715 36.1748C217.168 36.1748 215.727 36.0079 214.377 35.6742C213.027 35.3406 211.829 34.84 210.813 34.1878C209.782 33.5356 208.993 32.7317 208.417 31.761C207.84 30.7903 207.552 29.6679 207.552 28.3938V27.7416H212.785V28.227C212.785 29.3949 213.331 30.2898 214.423 30.8965C215.515 31.5032 217.001 31.8065 218.867 31.8065C219.974 31.8065 220.975 31.7003 221.885 31.4728C222.811 31.2453 223.523 30.8965 224.069 30.4263C224.6 29.9561 224.873 29.3645 224.873 28.6365C224.873 27.4534 224.297 26.6192 223.144 26.1187C221.991 25.6182 220.247 25.1783 217.911 24.784C216.637 24.5716 215.409 24.2834 214.226 23.9194C213.027 23.5706 211.966 23.1004 211.025 22.5088C210.07 21.9173 209.327 21.1893 208.765 20.3095C208.204 19.4298 207.931 18.3681 207.931 17.1244C207.931 15.5014 208.417 14.1212 209.387 12.9988C210.358 11.8764 211.662 11.0118 213.316 10.4355C214.954 9.85912 216.835 9.57094 218.761 9.57094C220.687 9.57094 222.462 9.87429 224.1 10.4962C225.738 11.118 227.057 12.0129 228.058 13.1808C229.06 14.3487 229.56 15.7745 229.56 17.4732V17.9131H224.358V17.5794C224.358 16.73 224.1 16.0475 223.569 15.5166C223.023 14.9857 222.34 14.5914 221.491 14.3184C220.642 14.0605 219.747 13.924 218.791 13.924C217.927 13.924 217.047 14.0302 216.167 14.2122C215.287 14.3942 214.559 14.7127 213.983 15.1526C213.392 15.5924 213.103 16.184 213.103 16.9575C213.103 17.7311 213.391 18.3529 213.953 18.808C214.514 19.263 215.318 19.6422 216.349 19.9455C217.381 20.2489 218.579 20.5219 219.959 20.7646C221.203 20.9921 222.431 21.2803 223.63 21.6291C224.828 21.978 225.905 22.433 226.86 22.9942ZM176.079 30.4567C176.656 30.032 177.111 29.5921 177.414 29.0916L177.399 29.0764C177.702 28.5759 177.884 28.0905 177.93 27.6052H183.163C183.072 28.6517 182.723 29.6983 182.131 30.7145C181.555 31.7459 180.721 32.6711 179.644 33.5053C178.567 34.3395 177.262 34.9917 175.715 35.4923C174.183 35.9928 172.409 36.2355 170.407 36.2355C167.737 36.2355 165.386 35.6591 163.369 34.5367C161.352 33.4143 159.789 31.8369 158.652 29.8348C157.787 28.3029 157.256 26.5889 157.059 24.7082H162.216C162.368 25.7851 162.641 26.7709 163.081 27.6355C163.763 28.9854 164.734 30.0168 166.008 30.7448C167.282 31.4729 168.814 31.8369 170.589 31.8369C171.832 31.8369 172.909 31.7156 173.819 31.4577C174.745 31.215 175.488 30.8813 176.079 30.4567ZM177.399 11.2847C175.442 10.1623 173.122 9.58595 170.437 9.58595C167.752 9.58595 165.477 10.1471 163.445 11.2695C161.412 12.3919 159.82 13.9542 158.682 15.9563C157.893 17.3366 157.393 18.8988 157.15 20.5976H162.277C162.459 19.6723 162.732 18.823 163.126 18.0798C163.824 16.7602 164.81 15.744 166.084 15.0311C167.343 14.3182 168.829 13.9542 170.498 13.9542C172.166 13.9542 173.577 14.2879 174.699 14.9553C175.821 15.6226 176.671 16.5175 177.232 17.6096C177.702 18.5348 177.96 19.5358 178.051 20.5976H164.658V24.6928H183.466C183.496 24.5411 183.526 24.2681 183.542 23.8738L183.548 23.6992C183.561 23.3639 183.572 23.0713 183.572 22.812C183.572 20.2335 183.041 17.9433 181.979 15.9563C180.918 13.9694 179.401 12.4223 177.444 11.2847H177.399ZM80.9642 32.307C81.0097 32.8682 81.1007 33.3535 81.222 33.7934L81.2524 33.8541C81.3889 34.3546 81.5709 34.7641 81.7681 35.0826C81.9652 35.4163 82.1472 35.6438 82.2686 35.7652H77.0358C76.9296 35.659 76.7931 35.4618 76.6111 35.1433C76.4291 34.8248 76.2623 34.4608 76.1106 34.0361C75.9893 33.6872 75.8982 33.2625 75.8224 32.8075C75.4281 33.2625 74.9882 33.6872 74.4573 34.0664C73.4714 34.7641 72.3036 35.295 70.9385 35.6893C69.5886 36.0685 68.0718 36.2657 66.4034 36.2657C64.462 36.2657 62.7632 35.9472 61.3071 35.3405C59.851 34.7338 58.7135 33.8389 57.9096 32.7013C57.1057 31.5638 56.6962 30.1684 56.6962 28.5606C56.6962 26.8315 57.1512 25.4058 58.0613 24.2834C58.9713 23.161 60.2302 22.2813 61.838 21.6594C63.4457 21.0375 65.2658 20.628 67.3134 20.4308C69.5582 20.2033 71.3025 19.9758 72.5766 19.7634V23.7222C71.257 23.9345 69.9071 24.1165 68.5117 24.2682C66.3276 24.4654 64.6895 24.8294 63.5974 25.3906C62.5054 25.9518 61.9593 26.9225 61.9593 28.1663C61.9593 29.41 62.4143 30.3352 63.3244 30.9571C64.2345 31.5638 65.6299 31.8823 67.4955 31.8823C68.9819 31.8823 70.3621 31.6396 71.5907 31.1694C72.8344 30.6841 73.8203 29.956 74.5635 28.9853C75.3067 28.0146 75.6707 26.786 75.6707 25.2996V24.0407L75.6404 18.2315V18.0799V18.0647V18.0192C75.6404 16.7148 75.0792 15.7289 73.972 15.0463C72.8496 14.3638 71.257 14.0301 69.1942 14.0301C67.0101 14.0301 65.3265 14.4245 64.1434 15.1829C62.9604 15.9412 62.3688 17.1546 62.3688 18.8231H57.2119C57.2119 16.8665 57.7276 15.1829 58.7438 13.8178C59.76 12.4375 61.1858 11.391 62.9907 10.6781C64.7956 9.96523 66.8736 9.60121 69.2094 9.60121C71.348 9.60121 73.3198 9.9349 75.0792 10.5871C76.8538 11.2393 78.2644 12.21 79.3109 13.4993C80.3727 14.7885 80.8884 16.3811 80.8884 18.3074V30.5779C80.8884 31.1694 80.9187 31.7458 80.9642 32.307ZM34.0052 62.1414L30.5621 51.4483H28.5449L32.7311 63.6582H35.2944L39.3745 51.4483H37.3572L34.0052 62.1414ZM47.8383 53.0408C46.9737 53.0408 46.2002 53.2228 45.548 53.5868L45.5632 53.6019C44.8958 53.9811 44.3801 54.4968 44.0161 55.1642C43.7886 55.5889 43.6369 56.0743 43.5459 56.6051H51.7212C51.6757 56.0136 51.5543 55.4827 51.3116 54.9822C51.0083 54.3907 50.5684 53.9205 49.9921 53.5716C49.4157 53.2228 48.7028 53.0408 47.8383 53.0408ZM47.8383 51.2813C49.0669 51.2813 50.1286 51.5543 51.0386 52.0852L51.0083 52.1004C51.9184 52.6312 52.6161 53.3744 53.1014 54.2997C53.6019 55.2249 53.8446 56.2866 53.8446 57.4697V57.955C53.8446 58.1674 53.8143 58.3645 53.8143 58.3645H43.5307C43.6066 58.9712 43.7582 59.5173 44.0161 60.0026C44.3649 60.6852 44.8806 61.216 45.5328 61.5801C46.185 61.9441 46.9586 62.1261 47.8686 62.1261C48.5208 62.1261 49.082 62.0654 49.5522 61.9289C50.0376 61.8076 50.4319 61.6256 50.7353 61.3981C51.0538 61.1705 51.2813 60.9279 51.4482 60.6548C51.615 60.3818 51.706 60.124 51.7363 59.851H53.6929C53.6626 60.3363 53.5109 60.8217 53.2379 61.307C52.9649 61.7924 52.5857 62.2323 52.1004 62.6266C51.615 63.021 51.0083 63.3243 50.2954 63.567C49.5826 63.7945 48.7635 63.9159 47.8383 63.9159C46.6097 63.9159 45.5328 63.6428 44.5925 63.112C43.6672 62.5811 42.924 61.8379 42.3932 60.8824C41.8623 59.9268 41.5893 58.8499 41.5893 57.6062C41.5893 56.3624 41.8623 55.2552 42.3932 54.3148C42.924 53.3593 43.6672 52.6161 44.6076 52.0852C45.548 51.5543 46.6097 51.2813 47.8383 51.2813ZM66.2817 51.8123C65.584 51.4483 64.7498 51.2663 63.8094 51.2663C62.869 51.2663 62.0348 51.4938 61.2461 51.964C60.6546 52.3129 60.1844 52.7831 59.7749 53.3139V51.4635H57.8183V63.6582H59.7749V56.8631C59.7749 56.1654 59.9417 55.5284 60.2754 54.9672C60.6091 54.406 61.049 53.951 61.6101 53.6173C62.1713 53.2836 62.7629 53.1167 63.4151 53.1167C64.1583 53.1167 64.765 53.2533 65.22 53.5111C65.675 53.7689 66.0087 54.1481 66.2362 54.6183C66.4486 55.0885 66.5547 55.6497 66.5547 56.2868V63.6582H68.5114V55.7711C68.5114 54.8307 68.3142 54.0268 67.935 53.3443C67.5406 52.6769 66.9946 52.1612 66.2969 51.7972L66.2817 51.8123ZM74.3206 47.4135H76.2924V47.4287V51.4784H80.1146V53.2075H76.2924V60.0632C76.2924 60.7154 76.3682 61.2311 76.5199 61.5951C76.6716 61.9592 77.0356 62.1412 77.5816 62.1412C77.8092 62.1412 78.0215 62.126 78.2187 62.0805C78.3857 62.0447 78.5058 62.0089 78.6012 61.9805C78.627 61.9728 78.651 61.9656 78.6737 61.9592V63.6579C78.5372 63.7034 78.3552 63.7489 78.1277 63.7944C77.885 63.8248 77.6271 63.8551 77.339 63.8551C76.9598 63.8551 76.5957 63.8096 76.2317 63.7338C75.8677 63.6428 75.5492 63.4911 75.261 63.2787C74.9728 63.0664 74.7453 62.763 74.5785 62.3535C74.4116 61.944 74.3206 61.4283 74.3206 60.7913V53.1923H71.3478V51.4632H73.2589C73.5167 51.4632 73.7139 51.4481 73.8656 51.4329C74.0173 51.4177 74.1235 51.3571 74.1841 51.2812C74.2448 51.2054 74.2903 51.0689 74.3055 50.9021C74.3206 50.7353 74.3206 50.4928 74.3206 50.1896V50.1892V47.4135ZM91.9754 57.9248C91.9754 58.5619 91.8237 59.1989 91.5203 59.836C91.217 60.473 90.8075 61.0039 90.2766 61.4285C89.7458 61.8532 89.1391 62.0656 88.4262 62.0656C87.683 62.0656 87.0914 61.8987 86.6516 61.5802C86.2269 61.2617 85.9235 60.8218 85.7567 60.3061C85.5899 59.7753 85.4989 59.1989 85.4989 58.577V51.4483H83.5423V59.0472C83.5423 59.5629 83.6181 60.109 83.7546 60.6702C83.8911 61.2314 84.1338 61.7622 84.4826 62.2324C84.8315 62.7178 85.2865 63.1121 85.8629 63.4155C86.4392 63.7188 87.1673 63.8705 88.047 63.8705C88.8205 63.8705 89.5182 63.7188 90.1401 63.4003C90.762 63.0818 91.2928 62.6723 91.7327 62.1414C91.7889 62.0758 91.8335 62.0045 91.8773 61.9345C91.9044 61.8911 91.9312 61.8483 91.9602 61.8077V63.6582H93.9168V51.4483H91.9602V57.9248H91.9754ZM101.88 51.5848C102.38 51.3725 102.957 51.2663 103.609 51.2663L103.594 51.2966C104.079 51.2966 104.489 51.3421 104.792 51.418C105.095 51.4938 105.292 51.5545 105.368 51.6L104.868 53.5111C104.803 53.4595 104.673 53.4078 104.495 53.3375L104.398 53.2988C104.17 53.2229 103.836 53.1774 103.412 53.1774C102.775 53.1774 102.244 53.2988 101.834 53.5263C101.425 53.7538 101.091 54.0571 100.848 54.4363C100.606 54.8155 100.439 55.225 100.333 55.6649C100.226 56.1047 100.181 56.5446 100.181 56.9845V63.6582H98.2244V51.4483H100.181V53.0561C100.317 52.8437 100.469 52.6314 100.651 52.4342C100.985 52.0854 101.394 51.7972 101.88 51.5848ZM111.678 53.5868C112.331 53.2228 113.104 53.0408 113.969 53.0408C114.833 53.0408 115.546 53.2228 116.122 53.5716C116.699 53.9205 117.139 54.3907 117.442 54.9822C117.685 55.4827 117.806 56.0136 117.852 56.6051H109.676C109.767 56.0743 109.919 55.5889 110.146 55.1642C110.51 54.4968 111.026 53.9811 111.678 53.6019V53.5868ZM117.154 52.0852C116.244 51.5543 115.182 51.2813 113.953 51.2813C112.725 51.2813 111.663 51.5543 110.723 52.0852C109.782 52.6161 109.039 53.3593 108.508 54.3148C107.977 55.2552 107.704 56.3624 107.704 57.6062C107.704 58.8499 107.977 59.9268 108.508 60.8824C109.039 61.8379 109.767 62.5811 110.708 63.112C111.648 63.6428 112.725 63.9159 113.953 63.9159C114.879 63.9159 115.698 63.7945 116.411 63.567C117.123 63.3243 117.73 63.021 118.216 62.6266C118.701 62.2323 119.08 61.7924 119.353 61.307C119.626 60.8217 119.778 60.3363 119.808 59.851H117.852C117.821 60.124 117.73 60.3818 117.563 60.6548C117.396 60.9279 117.169 61.1705 116.85 61.3981C116.547 61.6256 116.153 61.8076 115.667 61.9289C115.197 62.0654 114.636 62.1261 113.984 62.1261C113.074 62.1261 112.3 61.9441 111.648 61.5801C110.996 61.216 110.48 60.6852 110.131 60.0026C109.873 59.5173 109.722 58.9712 109.646 58.3645H119.945C119.945 58.3645 119.975 58.1674 119.975 57.955V57.4697C119.975 56.2866 119.732 55.2249 119.232 54.2997C118.746 53.3744 118.049 52.6312 117.139 52.1004L117.154 52.0852ZM137.539 57.1361C138.115 57.3181 138.6 57.5305 139.04 57.8035L139.055 57.7883C139.48 58.0614 139.829 58.395 140.072 58.8046C140.329 59.2141 140.451 59.7146 140.451 60.3061C140.451 60.8977 140.314 61.4285 140.041 61.8684C139.768 62.3083 139.404 62.6723 138.919 62.9756C138.434 63.2638 137.888 63.4913 137.266 63.643C136.629 63.7947 135.992 63.8705 135.264 63.8705C134.535 63.8705 133.853 63.7947 133.231 63.643C132.594 63.4913 132.063 63.2638 131.593 62.9605C131.138 62.6571 130.774 62.2779 130.516 61.8381C130.258 61.383 130.137 60.8825 130.137 60.3061V59.9573H132.094V60.2151C132.094 60.837 132.382 61.3224 132.958 61.6409C133.534 61.9594 134.308 62.1262 135.309 62.1262C135.916 62.1262 136.462 62.0656 136.947 61.9442C137.417 61.8229 137.812 61.6409 138.085 61.383C138.373 61.1252 138.509 60.8067 138.509 60.4275C138.509 59.7905 138.206 59.3354 137.615 59.0624C137.023 58.7894 136.143 58.5467 134.96 58.3495C134.338 58.2434 133.747 58.0917 133.186 57.9248C132.624 57.758 132.124 57.5305 131.699 57.2575C131.274 56.9845 130.926 56.6356 130.683 56.2261C130.425 55.8166 130.304 55.3312 130.304 54.7548C130.304 54.0116 130.531 53.3746 130.971 52.8589C131.411 52.3432 132.018 51.9488 132.761 51.6758C133.504 51.4028 134.384 51.2663 135.264 51.2663C136.143 51.2663 136.977 51.4028 137.721 51.691C138.464 51.9792 139.071 52.3887 139.526 52.9347C139.981 53.4656 140.208 54.133 140.208 54.9217V55.1492H138.252V54.9823C138.252 54.5425 138.115 54.1785 137.827 53.8903C137.539 53.6173 137.175 53.3898 136.72 53.2533C136.28 53.1167 135.794 53.0409 135.279 53.0409C134.793 53.0409 134.323 53.0864 133.853 53.1926C133.398 53.2988 133.004 53.4656 132.7 53.7083C132.397 53.9358 132.245 54.2543 132.245 54.679C132.245 55.1037 132.382 55.4374 132.67 55.6801C132.958 55.9227 133.352 56.1351 133.883 56.2868C134.399 56.4384 135.021 56.5749 135.734 56.7114C136.371 56.8176 136.977 56.9693 137.539 57.1361ZM147.883 47.4135H145.911V50.1892V50.1901C145.911 50.493 145.911 50.7354 145.896 50.9021C145.881 51.0689 145.835 51.2054 145.774 51.2812C145.714 51.3571 145.608 51.4177 145.456 51.4329C145.304 51.4481 145.107 51.4632 144.849 51.4632H142.938V53.1923H145.911V60.7913C145.911 61.4283 146.002 61.944 146.169 62.3535C146.336 62.763 146.563 63.0664 146.851 63.2787C147.139 63.4911 147.458 63.6428 147.822 63.7338C148.186 63.8096 148.55 63.8551 148.929 63.8551C149.217 63.8551 149.475 63.8248 149.718 63.7944C149.945 63.7489 150.127 63.7034 150.264 63.6579V61.9592C150.237 61.9667 150.209 61.9753 150.178 61.9845L150.178 61.9845C150.086 62.0123 149.972 62.0464 149.824 62.0805C149.627 62.126 149.415 62.1412 149.187 62.1412C148.641 62.1412 148.277 61.9592 148.125 61.5951C147.974 61.2311 147.883 60.7154 147.883 60.0632V53.2075H151.705V51.4784H147.883V47.4287V47.4135ZM163.111 59.836C163.415 59.1989 163.566 58.5619 163.566 57.9248V51.4483H165.523V63.6582H163.566V61.8077C163.521 61.8608 163.483 61.9177 163.445 61.9746C163.407 62.0315 163.369 62.0883 163.324 62.1414C162.884 62.6723 162.353 63.0818 161.731 63.4003C161.109 63.7188 160.411 63.8705 159.638 63.8705C158.758 63.8705 158.03 63.7188 157.454 63.4155C156.877 63.1121 156.422 62.7026 156.074 62.2324C155.725 61.7622 155.482 61.2314 155.345 60.6702C155.209 60.109 155.133 59.5629 155.133 59.0472V51.4483H157.09V58.577C157.09 59.1989 157.181 59.7753 157.348 60.3061C157.514 60.8218 157.818 61.2617 158.242 61.5802C158.682 61.8987 159.274 62.0656 160.017 62.0656C160.715 62.0656 161.337 61.8532 161.867 61.4285C162.398 61.0039 162.808 60.473 163.111 59.836ZM178.355 60.215C178.021 60.7762 177.566 61.2161 177.005 61.5498C176.444 61.8835 175.822 62.0503 175.139 62.0503C174.062 62.0503 173.167 61.6863 172.439 60.9431C171.726 60.1999 171.362 59.0775 171.362 57.5607C171.362 56.044 171.711 54.9064 172.424 54.1784C173.137 53.4503 174.032 53.0863 175.124 53.0863C175.776 53.0863 176.383 53.2531 176.944 53.5565C177.505 53.875 177.975 54.2997 178.324 54.8306C178.673 55.3614 178.84 55.9681 178.84 56.6355V58.3646C178.84 59.0623 178.673 59.6842 178.339 60.2302L178.355 60.215ZM178.84 53.0105C178.446 52.6009 178.006 52.2369 177.49 51.9639C176.671 51.5089 175.791 51.2965 174.836 51.2965C173.88 51.2965 172.94 51.5392 172.106 52.0246C171.271 52.5099 170.604 53.2228 170.088 54.1632C169.588 55.1036 169.33 56.226 169.33 57.5759C169.33 58.9258 169.573 60.0937 170.073 61.0341C170.574 61.9745 171.241 62.7025 172.075 63.1879C172.91 63.6732 173.835 63.9159 174.836 63.9159C175.837 63.9159 176.747 63.6732 177.566 63.1879C178.051 62.8997 178.476 62.5508 178.84 62.1413V63.6884H180.812V45.73H178.84V53.0105ZM185.332 46.6857C185.605 46.4886 185.908 46.3824 186.272 46.3824C186.621 46.3824 186.939 46.4886 187.197 46.6857C187.455 46.8829 187.592 47.1559 187.592 47.5048C187.592 47.8536 187.455 48.1418 187.197 48.339C186.939 48.5362 186.636 48.6423 186.272 48.6423C185.908 48.6423 185.589 48.5362 185.332 48.339C185.074 48.1418 184.937 47.8536 184.937 47.5048C184.937 47.1559 185.074 46.8829 185.332 46.6857ZM187.227 51.4483H185.301V63.643H187.227V51.4483ZM199.786 61.5042C200.438 61.1402 200.939 60.6093 201.303 59.9268C201.667 59.2443 201.849 58.4404 201.849 57.5303C201.849 56.6203 201.667 55.8316 201.303 55.1642C200.939 54.4968 200.423 53.9811 199.786 53.6171C199.149 53.2531 198.39 53.0711 197.556 53.0711C196.722 53.0711 195.979 53.2531 195.327 53.6171C194.674 53.9811 194.174 54.4968 193.81 55.1642C193.446 55.8316 193.264 56.6203 193.264 57.5303C193.264 58.4404 193.446 59.2443 193.81 59.9268C194.174 60.5942 194.674 61.125 195.327 61.5042C195.979 61.8834 196.707 62.0654 197.556 62.0654C198.406 62.0654 199.149 61.8834 199.786 61.5042ZM197.556 51.2813C198.785 51.2813 199.862 51.5543 200.802 52.0852C201.742 52.6161 202.47 53.3593 203.001 54.2997C203.532 55.24 203.805 56.3169 203.805 57.5455C203.805 58.7741 203.532 59.851 203.001 60.8065C202.47 61.7621 201.742 62.5053 200.802 63.0513C199.862 63.5973 198.785 63.8704 197.556 63.8704C196.328 63.8704 195.251 63.5973 194.31 63.0513C193.385 62.5053 192.642 61.7621 192.111 60.8065C191.565 59.851 191.307 58.7741 191.307 57.5455C191.307 56.3169 191.58 55.24 192.111 54.2997C192.642 53.3593 193.37 52.6161 194.31 52.0852C195.251 51.5543 196.328 51.2813 197.556 51.2813Z" fill="#F0ECEA"/>
</svg>
